<mxfile host="app.diagrams.net" modified="2024-02-24T22:36:41.311Z" agent="Mozilla/5.0 (Macintosh; Intel Mac OS X 10_15_7) AppleWebKit/537.36 (KHTML, like Gecko) Chrome/120.0.0.0 Safari/537.36" etag="g7i7qSWCNeCs85cL1ngb" version="23.1.6" type="device" pages="2">
  <diagram name="Page-1" id="a6t8nR0y_3xRSKbovVwj">
    <mxGraphModel dx="858" dy="487" grid="1" gridSize="10" guides="1" tooltips="1" connect="1" arrows="1" fold="1" page="1" pageScale="1" pageWidth="850" pageHeight="1100" math="0" shadow="0">
      <root>
        <mxCell id="0" />
        <mxCell id="1" parent="0" />
        <mxCell id="xPBMYkJvJJfKrblBs45B-1" value="&lt;br&gt;&lt;br&gt;&amp;nbsp; Amazon EC2" style="sketch=0;outlineConnect=0;fontColor=#232F3E;gradientColor=none;strokeColor=#ffffff;fillColor=#232F3E;dashed=0;verticalLabelPosition=middle;verticalAlign=bottom;align=center;html=1;whiteSpace=wrap;fontSize=10;fontStyle=1;spacing=3;shape=mxgraph.aws4.productIcon;prIcon=mxgraph.aws4.ec2;" vertex="1" parent="1">
          <mxGeometry x="360" y="290" width="55" height="90" as="geometry" />
        </mxCell>
        <mxCell id="xPBMYkJvJJfKrblBs45B-2" value="AWS Elastic Beanstalk" style="sketch=0;outlineConnect=0;fontColor=#232F3E;gradientColor=none;strokeColor=#ffffff;fillColor=#232F3E;dashed=0;verticalLabelPosition=middle;verticalAlign=bottom;align=center;html=1;whiteSpace=wrap;fontSize=10;fontStyle=1;spacing=3;shape=mxgraph.aws4.productIcon;prIcon=mxgraph.aws4.elastic_beanstalk;" vertex="1" parent="1">
          <mxGeometry x="345" y="120" width="80" height="110" as="geometry" />
        </mxCell>
        <mxCell id="xPBMYkJvJJfKrblBs45B-3" value="AWS CodePipeline" style="sketch=0;outlineConnect=0;fontColor=#232F3E;gradientColor=none;strokeColor=#ffffff;fillColor=#232F3E;dashed=0;verticalLabelPosition=middle;verticalAlign=bottom;align=center;html=1;whiteSpace=wrap;fontSize=10;fontStyle=1;spacing=3;shape=mxgraph.aws4.productIcon;prIcon=mxgraph.aws4.codepipeline;" vertex="1" parent="1">
          <mxGeometry x="170" y="120" width="80" height="110" as="geometry" />
        </mxCell>
        <mxCell id="xPBMYkJvJJfKrblBs45B-4" value="Amazon S3" style="sketch=0;outlineConnect=0;fontColor=#232F3E;gradientColor=none;strokeColor=#ffffff;fillColor=#232F3E;dashed=0;verticalLabelPosition=middle;verticalAlign=bottom;align=center;html=1;whiteSpace=wrap;fontSize=10;fontStyle=1;spacing=3;shape=mxgraph.aws4.productIcon;prIcon=mxgraph.aws4.s3;" vertex="1" parent="1">
          <mxGeometry x="185" y="290" width="50" height="80" as="geometry" />
        </mxCell>
        <mxCell id="xPBMYkJvJJfKrblBs45B-5" value="Amazon Route 53" style="sketch=0;outlineConnect=0;fontColor=#232F3E;gradientColor=none;strokeColor=#ffffff;fillColor=#232F3E;dashed=0;verticalLabelPosition=middle;verticalAlign=bottom;align=center;html=1;whiteSpace=wrap;fontSize=10;fontStyle=1;spacing=3;shape=mxgraph.aws4.productIcon;prIcon=mxgraph.aws4.route_53;" vertex="1" parent="1">
          <mxGeometry x="510" y="120" width="80" height="110" as="geometry" />
        </mxCell>
        <mxCell id="xPBMYkJvJJfKrblBs45B-6" value="AWS Certificate Manager" style="sketch=0;outlineConnect=0;fontColor=#232F3E;gradientColor=none;strokeColor=#ffffff;fillColor=#232F3E;dashed=0;verticalLabelPosition=middle;verticalAlign=bottom;align=center;html=1;whiteSpace=wrap;fontSize=10;fontStyle=1;spacing=3;shape=mxgraph.aws4.productIcon;prIcon=mxgraph.aws4.certificate_manager_3;" vertex="1" parent="1">
          <mxGeometry x="450" y="10" width="70" height="100" as="geometry" />
        </mxCell>
        <mxCell id="xPBMYkJvJJfKrblBs45B-7" value="Amazon Cloudfront" style="sketch=0;outlineConnect=0;fontColor=#232F3E;gradientColor=none;strokeColor=#ffffff;fillColor=#232F3E;dashed=0;verticalLabelPosition=middle;verticalAlign=bottom;align=center;html=1;whiteSpace=wrap;fontSize=10;fontStyle=1;spacing=3;shape=mxgraph.aws4.productIcon;prIcon=mxgraph.aws4.cloudfront;" vertex="1" parent="1">
          <mxGeometry x="580" y="10" width="70" height="100" as="geometry" />
        </mxCell>
        <mxCell id="xPBMYkJvJJfKrblBs45B-8" value="AWS Lambda" style="sketch=0;outlineConnect=0;fontColor=#232F3E;gradientColor=none;strokeColor=#ffffff;fillColor=#232F3E;dashed=0;verticalLabelPosition=middle;verticalAlign=bottom;align=center;html=1;whiteSpace=wrap;fontSize=10;fontStyle=1;spacing=3;shape=mxgraph.aws4.productIcon;prIcon=mxgraph.aws4.lambda;" vertex="1" parent="1">
          <mxGeometry x="740" y="260" width="80" height="100" as="geometry" />
        </mxCell>
        <mxCell id="xPBMYkJvJJfKrblBs45B-9" value="" style="dashed=0;outlineConnect=0;html=1;align=center;labelPosition=center;verticalLabelPosition=bottom;verticalAlign=top;shape=mxgraph.weblogos.github" vertex="1" parent="1">
          <mxGeometry x="10" y="307.5" width="75" height="75" as="geometry" />
        </mxCell>
        <mxCell id="xPBMYkJvJJfKrblBs45B-10" value="" style="endArrow=classic;html=1;rounded=0;" edge="1" parent="1">
          <mxGeometry width="50" height="50" relative="1" as="geometry">
            <mxPoint x="70" y="300" as="sourcePoint" />
            <mxPoint x="150" y="220" as="targetPoint" />
          </mxGeometry>
        </mxCell>
        <mxCell id="xPBMYkJvJJfKrblBs45B-11" value="" style="endArrow=classic;html=1;rounded=0;" edge="1" parent="1">
          <mxGeometry width="50" height="50" relative="1" as="geometry">
            <mxPoint x="27" y="50" as="sourcePoint" />
            <mxPoint x="27" y="10" as="targetPoint" />
          </mxGeometry>
        </mxCell>
        <mxCell id="xPBMYkJvJJfKrblBs45B-12" value="" style="endArrow=classic;html=1;rounded=0;" edge="1" parent="1">
          <mxGeometry width="50" height="50" relative="1" as="geometry">
            <mxPoint x="37" y="60" as="sourcePoint" />
            <mxPoint x="37" y="20" as="targetPoint" />
          </mxGeometry>
        </mxCell>
        <mxCell id="xPBMYkJvJJfKrblBs45B-13" value="" style="endArrow=classic;html=1;rounded=0;" edge="1" parent="1">
          <mxGeometry width="50" height="50" relative="1" as="geometry">
            <mxPoint x="47" y="70" as="sourcePoint" />
            <mxPoint x="47" y="30" as="targetPoint" />
          </mxGeometry>
        </mxCell>
        <mxCell id="xPBMYkJvJJfKrblBs45B-14" value="" style="endArrow=classic;html=1;rounded=0;" edge="1" parent="1">
          <mxGeometry width="50" height="50" relative="1" as="geometry">
            <mxPoint x="57" y="80" as="sourcePoint" />
            <mxPoint x="57" y="40" as="targetPoint" />
          </mxGeometry>
        </mxCell>
        <mxCell id="xPBMYkJvJJfKrblBs45B-15" value="" style="endArrow=classic;html=1;rounded=0;" edge="1" parent="1">
          <mxGeometry width="50" height="50" relative="1" as="geometry">
            <mxPoint x="209.5" y="280" as="sourcePoint" />
            <mxPoint x="209.5" y="240" as="targetPoint" />
          </mxGeometry>
        </mxCell>
        <mxCell id="xPBMYkJvJJfKrblBs45B-16" value="" style="endArrow=classic;html=1;rounded=0;" edge="1" parent="1">
          <mxGeometry width="50" height="50" relative="1" as="geometry">
            <mxPoint x="27" y="60" as="sourcePoint" />
            <mxPoint x="27" y="100" as="targetPoint" />
          </mxGeometry>
        </mxCell>
        <mxCell id="xPBMYkJvJJfKrblBs45B-17" value="" style="endArrow=classic;html=1;rounded=0;" edge="1" parent="1">
          <mxGeometry width="50" height="50" relative="1" as="geometry">
            <mxPoint x="37" y="70" as="sourcePoint" />
            <mxPoint x="37" y="110" as="targetPoint" />
          </mxGeometry>
        </mxCell>
        <mxCell id="xPBMYkJvJJfKrblBs45B-18" value="" style="endArrow=classic;html=1;rounded=0;" edge="1" parent="1">
          <mxGeometry width="50" height="50" relative="1" as="geometry">
            <mxPoint x="47" y="80" as="sourcePoint" />
            <mxPoint x="47" y="120" as="targetPoint" />
          </mxGeometry>
        </mxCell>
        <mxCell id="xPBMYkJvJJfKrblBs45B-19" value="" style="endArrow=classic;html=1;rounded=0;" edge="1" parent="1">
          <mxGeometry width="50" height="50" relative="1" as="geometry">
            <mxPoint x="440" y="160" as="sourcePoint" />
            <mxPoint x="500" y="160" as="targetPoint" />
          </mxGeometry>
        </mxCell>
        <mxCell id="xPBMYkJvJJfKrblBs45B-20" value="" style="endArrow=classic;html=1;rounded=0;" edge="1" parent="1">
          <mxGeometry width="50" height="50" relative="1" as="geometry">
            <mxPoint x="200" y="240" as="sourcePoint" />
            <mxPoint x="200" y="280" as="targetPoint" />
          </mxGeometry>
        </mxCell>
        <mxCell id="xPBMYkJvJJfKrblBs45B-21" value="" style="endArrow=classic;html=1;rounded=0;" edge="1" parent="1">
          <mxGeometry width="50" height="50" relative="1" as="geometry">
            <mxPoint x="389.25" y="280" as="sourcePoint" />
            <mxPoint x="389.25" y="240" as="targetPoint" />
          </mxGeometry>
        </mxCell>
        <mxCell id="xPBMYkJvJJfKrblBs45B-22" value="" style="endArrow=classic;html=1;rounded=0;" edge="1" parent="1">
          <mxGeometry width="50" height="50" relative="1" as="geometry">
            <mxPoint x="379.75" y="240" as="sourcePoint" />
            <mxPoint x="379.75" y="280" as="targetPoint" />
          </mxGeometry>
        </mxCell>
        <mxCell id="xPBMYkJvJJfKrblBs45B-23" value="" style="endArrow=classic;html=1;rounded=0;" edge="1" parent="1">
          <mxGeometry width="50" height="50" relative="1" as="geometry">
            <mxPoint x="270" y="160" as="sourcePoint" />
            <mxPoint x="330" y="160" as="targetPoint" />
          </mxGeometry>
        </mxCell>
      </root>
    </mxGraphModel>
  </diagram>
  <diagram name="youtubeChatAI" id="OdCN1yytbfYSz6CbzW1o">
    <mxGraphModel dx="858" dy="487" grid="1" gridSize="10" guides="1" tooltips="1" connect="1" arrows="1" fold="1" page="1" pageScale="1" pageWidth="850" pageHeight="1100" math="0" shadow="0">
      <root>
        <mxCell id="WnTQ4Z6a-Ea_7mhcwyWi-0" />
        <mxCell id="WnTQ4Z6a-Ea_7mhcwyWi-1" parent="WnTQ4Z6a-Ea_7mhcwyWi-0" />
        <mxCell id="WnTQ4Z6a-Ea_7mhcwyWi-2" value="&lt;br&gt;&lt;br&gt;&amp;nbsp; Amazon EC2" style="sketch=0;outlineConnect=0;fontColor=#232F3E;gradientColor=none;strokeColor=#ffffff;fillColor=#232F3E;dashed=0;verticalLabelPosition=middle;verticalAlign=bottom;align=center;html=1;whiteSpace=wrap;fontSize=10;fontStyle=1;spacing=3;shape=mxgraph.aws4.productIcon;prIcon=mxgraph.aws4.ec2;" vertex="1" parent="WnTQ4Z6a-Ea_7mhcwyWi-1">
          <mxGeometry x="460" y="410" width="60" height="90" as="geometry" />
        </mxCell>
        <mxCell id="WnTQ4Z6a-Ea_7mhcwyWi-3" value="AWS Elastic Beanstalk" style="sketch=0;outlineConnect=0;fontColor=#232F3E;gradientColor=none;strokeColor=#ffffff;fillColor=#232F3E;dashed=0;verticalLabelPosition=middle;verticalAlign=bottom;align=center;html=1;whiteSpace=wrap;fontSize=10;fontStyle=1;spacing=3;shape=mxgraph.aws4.productIcon;prIcon=mxgraph.aws4.elastic_beanstalk;" vertex="1" parent="WnTQ4Z6a-Ea_7mhcwyWi-1">
          <mxGeometry x="445" y="240" width="80" height="110" as="geometry" />
        </mxCell>
        <mxCell id="WnTQ4Z6a-Ea_7mhcwyWi-4" value="AWS CodePipeline" style="sketch=0;outlineConnect=0;fontColor=#232F3E;gradientColor=none;strokeColor=#ffffff;fillColor=#232F3E;dashed=0;verticalLabelPosition=middle;verticalAlign=bottom;align=center;html=1;whiteSpace=wrap;fontSize=10;fontStyle=1;spacing=3;shape=mxgraph.aws4.productIcon;prIcon=mxgraph.aws4.codepipeline;" vertex="1" parent="WnTQ4Z6a-Ea_7mhcwyWi-1">
          <mxGeometry x="270" y="240" width="80" height="110" as="geometry" />
        </mxCell>
        <mxCell id="WnTQ4Z6a-Ea_7mhcwyWi-5" value="Amazon S3" style="sketch=0;outlineConnect=0;fontColor=#232F3E;gradientColor=none;strokeColor=#ffffff;fillColor=#232F3E;dashed=0;verticalLabelPosition=middle;verticalAlign=bottom;align=center;html=1;whiteSpace=wrap;fontSize=10;fontStyle=1;spacing=3;shape=mxgraph.aws4.productIcon;prIcon=mxgraph.aws4.s3;" vertex="1" parent="WnTQ4Z6a-Ea_7mhcwyWi-1">
          <mxGeometry x="285" y="410" width="50" height="80" as="geometry" />
        </mxCell>
        <mxCell id="WnTQ4Z6a-Ea_7mhcwyWi-6" value="Amazon Route 53" style="sketch=0;outlineConnect=0;fontColor=#232F3E;gradientColor=none;strokeColor=#ffffff;fillColor=#232F3E;dashed=0;verticalLabelPosition=middle;verticalAlign=bottom;align=center;html=1;whiteSpace=wrap;fontSize=10;fontStyle=1;spacing=3;shape=mxgraph.aws4.productIcon;prIcon=mxgraph.aws4.route_53;" vertex="1" parent="WnTQ4Z6a-Ea_7mhcwyWi-1">
          <mxGeometry x="610" y="240" width="80" height="110" as="geometry" />
        </mxCell>
        <mxCell id="WnTQ4Z6a-Ea_7mhcwyWi-7" value="AWS Certificate Manager" style="sketch=0;outlineConnect=0;fontColor=#232F3E;gradientColor=none;strokeColor=#ffffff;fillColor=#232F3E;dashed=0;verticalLabelPosition=middle;verticalAlign=bottom;align=center;html=1;whiteSpace=wrap;fontSize=10;fontStyle=1;spacing=3;shape=mxgraph.aws4.productIcon;prIcon=mxgraph.aws4.certificate_manager_3;" vertex="1" parent="WnTQ4Z6a-Ea_7mhcwyWi-1">
          <mxGeometry x="550" y="130" width="70" height="100" as="geometry" />
        </mxCell>
        <mxCell id="WnTQ4Z6a-Ea_7mhcwyWi-8" value="Amazon Cloudfront" style="sketch=0;outlineConnect=0;fontColor=#232F3E;gradientColor=none;strokeColor=#ffffff;fillColor=#232F3E;dashed=0;verticalLabelPosition=middle;verticalAlign=bottom;align=center;html=1;whiteSpace=wrap;fontSize=10;fontStyle=1;spacing=3;shape=mxgraph.aws4.productIcon;prIcon=mxgraph.aws4.cloudfront;" vertex="1" parent="WnTQ4Z6a-Ea_7mhcwyWi-1">
          <mxGeometry x="680" y="130" width="70" height="100" as="geometry" />
        </mxCell>
        <mxCell id="WnTQ4Z6a-Ea_7mhcwyWi-10" value="" style="dashed=0;outlineConnect=0;html=1;align=center;labelPosition=center;verticalLabelPosition=bottom;verticalAlign=top;shape=mxgraph.weblogos.github" vertex="1" parent="WnTQ4Z6a-Ea_7mhcwyWi-1">
          <mxGeometry x="130" y="400" width="75" height="75" as="geometry" />
        </mxCell>
        <mxCell id="WnTQ4Z6a-Ea_7mhcwyWi-11" value="" style="endArrow=classic;html=1;rounded=0;" edge="1" parent="WnTQ4Z6a-Ea_7mhcwyWi-1">
          <mxGeometry width="50" height="50" relative="1" as="geometry">
            <mxPoint x="185" y="400" as="sourcePoint" />
            <mxPoint x="265" y="320" as="targetPoint" />
          </mxGeometry>
        </mxCell>
        <mxCell id="WnTQ4Z6a-Ea_7mhcwyWi-16" value="" style="endArrow=classic;html=1;rounded=0;" edge="1" parent="WnTQ4Z6a-Ea_7mhcwyWi-1">
          <mxGeometry width="50" height="50" relative="1" as="geometry">
            <mxPoint x="309.5" y="400" as="sourcePoint" />
            <mxPoint x="309.5" y="360" as="targetPoint" />
          </mxGeometry>
        </mxCell>
        <mxCell id="WnTQ4Z6a-Ea_7mhcwyWi-20" value="" style="endArrow=classic;html=1;rounded=0;" edge="1" parent="WnTQ4Z6a-Ea_7mhcwyWi-1">
          <mxGeometry width="50" height="50" relative="1" as="geometry">
            <mxPoint x="540" y="280" as="sourcePoint" />
            <mxPoint x="600" y="280" as="targetPoint" />
          </mxGeometry>
        </mxCell>
        <mxCell id="WnTQ4Z6a-Ea_7mhcwyWi-21" value="" style="endArrow=classic;html=1;rounded=0;" edge="1" parent="WnTQ4Z6a-Ea_7mhcwyWi-1">
          <mxGeometry width="50" height="50" relative="1" as="geometry">
            <mxPoint x="300" y="360" as="sourcePoint" />
            <mxPoint x="300" y="400" as="targetPoint" />
          </mxGeometry>
        </mxCell>
        <mxCell id="WnTQ4Z6a-Ea_7mhcwyWi-22" value="" style="endArrow=classic;html=1;rounded=0;" edge="1" parent="WnTQ4Z6a-Ea_7mhcwyWi-1">
          <mxGeometry width="50" height="50" relative="1" as="geometry">
            <mxPoint x="489.25" y="400" as="sourcePoint" />
            <mxPoint x="489.25" y="360" as="targetPoint" />
          </mxGeometry>
        </mxCell>
        <mxCell id="WnTQ4Z6a-Ea_7mhcwyWi-23" value="" style="endArrow=classic;html=1;rounded=0;" edge="1" parent="WnTQ4Z6a-Ea_7mhcwyWi-1">
          <mxGeometry width="50" height="50" relative="1" as="geometry">
            <mxPoint x="479.75" y="360" as="sourcePoint" />
            <mxPoint x="479.75" y="400" as="targetPoint" />
          </mxGeometry>
        </mxCell>
        <mxCell id="WnTQ4Z6a-Ea_7mhcwyWi-24" value="" style="endArrow=classic;html=1;rounded=0;" edge="1" parent="WnTQ4Z6a-Ea_7mhcwyWi-1">
          <mxGeometry width="50" height="50" relative="1" as="geometry">
            <mxPoint x="370" y="280" as="sourcePoint" />
            <mxPoint x="430" y="280" as="targetPoint" />
          </mxGeometry>
        </mxCell>
        <mxCell id="6AvuD6jutoS3DAfwq7Gx-0" value="" style="endArrow=none;dashed=1;html=1;rounded=0;" edge="1" parent="WnTQ4Z6a-Ea_7mhcwyWi-1">
          <mxGeometry width="50" height="50" relative="1" as="geometry">
            <mxPoint x="650" y="240" as="sourcePoint" />
            <mxPoint x="680" y="180" as="targetPoint" />
            <Array as="points">
              <mxPoint x="620" y="180" />
            </Array>
          </mxGeometry>
        </mxCell>
        <mxCell id="6AvuD6jutoS3DAfwq7Gx-1" value="" style="endArrow=none;dashed=1;html=1;rounded=0;" edge="1" parent="WnTQ4Z6a-Ea_7mhcwyWi-1">
          <mxGeometry width="50" height="50" relative="1" as="geometry">
            <mxPoint x="650" y="240" as="sourcePoint" />
            <mxPoint x="680" y="180" as="targetPoint" />
          </mxGeometry>
        </mxCell>
      </root>
    </mxGraphModel>
  </diagram>
</mxfile>
